<svg width="254" height="250" viewBox="0 0 254 250" fill="none" xmlns="http://www.w3.org/2000/svg">
<rect x="1" y="1" width="252" height="248" rx="124" fill="#1D1B1B"/>
<path d="M121.78 40.462C125.01 38.596 128.99 38.596 132.22 40.4621L197.124 77.9577C200.354 79.8238 202.344 83.2725 202.344 87.0046V161.996C202.344 165.728 200.354 169.176 197.124 171.042L132.22 208.538C128.99 210.404 125.01 210.404 121.78 208.538L56.8758 171.042C53.6456 169.176 51.6558 165.728 51.6558 161.995V87.0043C51.6558 83.2725 53.6456 79.8238 56.8758 77.9577L121.78 40.462Z" stroke="#64FFDA" stroke-width="10"/>
<path d="M167.12 173H92.22V75.56H130.16C138.28 75.56 144.907 77.0067 150.04 79.9C155.08 82.7 159 86.5267 161.8 91.38C164.6 96.2333 166 101.6 166 107.48C166 114.76 163.76 121.293 159.28 127.08C154.8 132.773 149.153 136.553 142.34 138.42L167.12 173ZM101.04 80.74L139.12 133.94C145.373 132.633 150.553 129.507 154.66 124.56C158.767 119.613 160.82 113.92 160.82 107.48C160.82 102.347 159.56 97.68 157.04 93.48C154.52 89.28 150.973 86.06 146.4 83.82C142.293 81.7667 136.927 80.74 130.3 80.74H101.04ZM97.4 84.1V134.36H133.38L97.4 84.1ZM97.4 167.82H157.32L136.88 139.4L132.54 139.54H97.4V167.82Z" fill="white"/>
<rect x="1" y="1" width="252" height="248" rx="124" stroke="#64FFDA" stroke-width="2"/>
</svg>
