<svg width="194" height="217" viewBox="0 0 194 217" fill="none" xmlns="http://www.w3.org/2000/svg">
<path d="M91.18 14.9808C94.7814 12.9043 99.2186 12.9043 102.82 14.9809L175.184 56.7067C178.786 58.7834 181.004 62.6212 181.004 66.7744V150.226C181.004 154.379 178.786 158.217 175.184 160.293L102.82 202.019C99.2186 204.096 94.7814 204.096 91.18 202.019L18.8155 160.293C15.2141 158.217 12.9955 154.379 12.9955 150.226V66.774C12.9955 62.6212 15.2141 58.7834 18.8155 56.7067L91.18 14.9808Z" stroke="#64FFDA" stroke-width="10"/>
<path d="M139.7 160H59.45V55.6H100.1C108.8 55.6 115.9 57.15 121.4 60.25C126.8 63.25 131 67.35 134 72.55C137 77.75 138.5 83.5 138.5 89.8C138.5 97.6 136.1 104.6 131.3 110.8C126.5 116.9 120.45 120.95 113.15 122.95L139.7 160ZM68.9 61.15L109.7 118.15C116.4 116.75 121.95 113.4 126.35 108.1C130.75 102.8 132.95 96.7 132.95 89.8C132.95 84.3 131.6 79.3 128.9 74.8C126.2 70.3 122.4 66.85 117.5 64.45C113.1 62.25 107.35 61.15 100.25 61.15H68.9ZM65 64.75V118.6H103.55L65 64.75ZM65 154.45H129.2L107.3 124L102.65 124.15H65V154.45Z" fill="white"/>
</svg>
